# xmcd
#
# Track frame offsets: 
#        150
#        13997
#        27437
#        67965
#        79462
#        94687
#        109497
#        126877
#
# Disc length: 1916 seconds
#
# Revision: 1
# Processed by: cddbd v1.5.2PL0 Copyright (c) Steve Scherf et al.
# Submitted via: ExactAudioCopy v1.0b4
#
DISCID=6c077a08
DTITLE=Chris Bell - Blues 2001
DYEAR=2000
DGENRE=Rockin' Blues, Electric Blues
TTITLE0=Down Home Cookin'
TTITLE1=Ain't Seen Nothing
TTITLE2=Elevator to Heaven
TTITLE3=Mr. Chill
TTITLE4=Doin' Time
TTITLE5=Heck With You
TTITLE6=Wine Cooler
TTITLE7=Roll With the Punches
EXTD=
EXTT0=
EXTT1=
EXTT2=
EXTT3=
EXTT4=
EXTT5=
EXTT6=
EXTT7=
PLAYORDER=
